<svg xmlns="http://www.w3.org/2000/svg" viewBox="0 0 512 512">
  <g fill="none" stroke-linecap="round" stroke-linejoin="round">
    <ellipse cx="256" cy="276" rx="124" ry="120" fill="#9eefff" stroke="#4bbbdc" stroke-width="15"/>
    <path fill="#d8b8ff" stroke="#ad78e8" stroke-width="13" d="M154 282q-76 12-106 74 74 24 136-18M358 282q76 12 106 74-74 24-136-18"/>
    <path fill="#c7ffdf" stroke="#75d998" stroke-width="12" d="M176 174l30-70 50 58 50-58 30 70"/>
    <circle cx="210" cy="278" r="15" fill="#3d67be"/>
    <circle cx="302" cy="278" r="15" fill="#3d67be"/>
    <path stroke="#3d67be" stroke-width="11" d="M226 332q30 24 60 0"/>
    <path fill="#ffffff" stroke="#7ed8ef" stroke-width="10" d="M188 366q68 42 136 0v46q-68 38-136 0z"/>
    <circle cx="112" cy="154" r="28" fill="#e7fcff" stroke="#7ed8ef" stroke-width="9"/>
    <circle cx="412" cy="182" r="36" fill="#e7fcff" stroke="#7ed8ef" stroke-width="10"/>
    <circle cx="382" cy="88" r="20" fill="#e7fcff" stroke="#7ed8ef" stroke-width="8"/>
  </g>
</svg>
