<svg xmlns="http://www.w3.org/2000/svg" viewBox="0 0 512 512">
  <g fill="none" stroke-linecap="round" stroke-linejoin="round">
    <ellipse cx="256" cy="286" rx="116" ry="138" fill="#bff3ff" stroke="#56bfdf" stroke-width="14"/>
    <path fill="#e8fbff" stroke="#56bfdf" stroke-width="12" d="M162 268q48 36 94 0t94 0v118q-40 52-94 52t-94-52z"/>
    <circle cx="214" cy="268" r="13" fill="#3d67be"/>
    <circle cx="298" cy="268" r="13" fill="#3d67be"/>
    <path stroke="#3d67be" stroke-width="10" d="M238 318q18 16 36 0"/>
    <circle cx="144" cy="166" r="28" fill="#dffbff" stroke="#7ed8ef" stroke-width="10"/>
    <circle cx="360" cy="144" r="38" fill="#dffbff" stroke="#7ed8ef" stroke-width="10"/>
    <circle cx="404" cy="244" r="22" fill="#dffbff" stroke="#7ed8ef" stroke-width="9"/>
    <path fill="#ffd0ea" stroke="#ee8fc1" stroke-width="11" d="M182 408q-30 30-64 38 8-46 46-70M330 408q30 30 64 38-8-46-46-70"/>
  </g>
</svg>
