<svg xmlns="http://www.w3.org/2000/svg" viewBox="0 0 512 512">
  <g fill="none" stroke-linecap="round" stroke-linejoin="round">
    <path fill="#e6f7ff" stroke="#95d7ee" stroke-width="15" d="M132 318q-60-14-60-70 0-48 50-64 18-70 88-62 50-66 112-10 78-2 98 70 54 10 54 66 0 66-72 70z"/>
    <path fill="#c7f2ff" stroke="#78c9e5" stroke-width="12" d="M174 194l-30-92 86 54M338 194l30-92-86 54"/>
    <circle cx="208" cy="260" r="15" fill="#5267c9"/>
    <circle cx="304" cy="260" r="15" fill="#5267c9"/>
    <path stroke="#5267c9" stroke-width="11" d="M230 318q26 22 52 0"/>
    <path fill="#ffd1eb" stroke="#ee8fc1" stroke-width="10" d="M154 350q-46 22-80 64 60 2 102-30M358 350q46 22 80 64-60 2-102-30"/>
    <path stroke="#95d7ee" stroke-width="10" d="M152 276h-42M154 302h-48M360 276h42M358 302h48"/>
  </g>
</svg>
