<svg xmlns="http://www.w3.org/2000/svg" viewBox="0 0 512 512">
  <g fill="none" stroke-linecap="round" stroke-linejoin="round">
    <ellipse cx="256" cy="288" rx="128" ry="124" fill="#d7ffc8" stroke="#6dcb68" stroke-width="15"/>
    <path fill="#95e87c" stroke="#5fbd5d" stroke-width="13" d="M158 206q-56-92-14-150 74 42 74 142M354 206q56-92 14-150-74 42-74 142"/>
    <path fill="#bff5ff" stroke="#66c8e8" stroke-width="12" d="M144 330q-62 30-92 94 74 2 126-44M368 330q62 30 92 94-74 2-126-44"/>
    <path fill="#fff0a6" stroke="#efc65c" stroke-width="11" d="M176 198h160l-26 54H202z"/>
    <circle cx="210" cy="292" r="15" fill="#4569b9"/>
    <circle cx="302" cy="292" r="15" fill="#4569b9"/>
    <path stroke="#4569b9" stroke-width="11" d="M226 346q30 24 60 0"/>
    <path fill="#95e87c" stroke="#5fbd5d" stroke-width="10" d="M256 108q-16-54-72-68 8 58 72 68zM256 108q22-58 82-68-14 62-82 68z"/>
  </g>
</svg>
