<svg xmlns="http://www.w3.org/2000/svg" viewBox="0 0 512 512">
  <g fill="none" stroke-linecap="round" stroke-linejoin="round">
    <ellipse cx="256" cy="304" rx="104" ry="118" fill="#caffb8" stroke="#79d66b" stroke-width="14"/>
    <path fill="#95e87c" stroke="#5fbd5d" stroke-width="12" d="M248 190q-4-78-72-102 4 78 72 102zM264 190q12-82 88-102-12 82-88 102z"/>
    <circle cx="218" cy="292" r="13" fill="#4569b9"/>
    <circle cx="294" cy="292" r="13" fill="#4569b9"/>
    <path stroke="#4569b9" stroke-width="10" d="M238 338q18 16 36 0"/>
    <ellipse cx="188" cy="348" rx="22" ry="15" fill="#ffadd1"/>
    <ellipse cx="324" cy="348" rx="22" ry="15" fill="#ffadd1"/>
    <path fill="#fff0a6" stroke="#efc65c" stroke-width="10" d="M184 414q-34 24-72 30 14-42 58-62M328 414q34 24 72 30-14-42-58-62"/>
  </g>
</svg>
