<svg xmlns="http://www.w3.org/2000/svg" viewBox="0 0 512 512">
  <g fill="none" stroke-linecap="round" stroke-linejoin="round">
    <path fill="#fff6a8" stroke="#f6c85f" stroke-width="14" d="M256 54l34 68 75 11-54 53 13 74-68-35-67 35 13-74-54-53 75-11z"/>
    <ellipse cx="256" cy="292" rx="112" ry="116" fill="#ffd7ef" stroke="#f59bc7" stroke-width="14"/>
    <circle cx="204" cy="192" r="44" fill="#ffd7ef" stroke="#f59bc7" stroke-width="12"/>
    <circle cx="308" cy="192" r="44" fill="#ffd7ef" stroke="#f59bc7" stroke-width="12"/>
    <circle cx="218" cy="282" r="13" fill="#5267c9"/>
    <circle cx="294" cy="282" r="13" fill="#5267c9"/>
    <path stroke="#5267c9" stroke-width="10" d="M244 318q12 12 24 0"/>
    <circle cx="184" cy="330" r="20" fill="#ff9cc8"/>
    <circle cx="328" cy="330" r="20" fill="#ff9cc8"/>
    <path fill="#bdefff" stroke="#6bc6e8" stroke-width="12" d="M154 374q-42 28-62 76 52-7 88-38"/>
    <path fill="#bdefff" stroke="#6bc6e8" stroke-width="12" d="M358 374q42 28 62 76-52-7-88-38"/>
  </g>
</svg>
