<svg xmlns="http://www.w3.org/2000/svg" viewBox="0 0 512 512">
  <g fill="none" stroke-linecap="round" stroke-linejoin="round">
    <path fill="#ffd36f" stroke="#f4a94f" stroke-width="14" d="M146 144l34-84 50 74M366 144l-34-84-50 74"/>
    <ellipse cx="256" cy="262" rx="124" ry="126" fill="#ffc2d9" stroke="#ee82b2" stroke-width="14"/>
    <path fill="#fff9b8" stroke="#f6c85f" stroke-width="12" d="M198 112l19 38 42 6-31 30 8 42-38-20-38 20 8-42-31-30 42-6z"/>
    <circle cx="210" cy="260" r="14" fill="#4e63c7"/>
    <circle cx="302" cy="260" r="14" fill="#4e63c7"/>
    <path stroke="#4e63c7" stroke-width="10" d="M232 310q24 22 48 0"/>
    <path fill="#d6f7ff" stroke="#6cc7e9" stroke-width="13" d="M340 346q84 34 98 104-82 4-142-42"/>
    <path fill="#fff6a8" stroke="#f6c85f" stroke-width="10" d="M397 370l15 29 32 5-23 23 6 32-30-16-29 16 5-32-23-23 32-5z"/>
    <ellipse cx="182" cy="328" rx="24" ry="16" fill="#ff91bf"/>
    <ellipse cx="330" cy="328" rx="24" ry="16" fill="#ff91bf"/>
  </g>
</svg>
