<svg xmlns="http://www.w3.org/2000/svg" viewBox="0 0 512 512">
  <g fill="none" stroke-linecap="round" stroke-linejoin="round">
    <circle cx="256" cy="262" r="128" fill="#c7f2ff" stroke="#5fbfe8" stroke-width="15"/>
    <path fill="#fff3a3" stroke="#f3bd4e" stroke-width="14" d="M256 42l31 72 78 7-59 52 18 77-68-40-68 40 18-77-59-52 78-7z"/>
    <path fill="#f7c2ff" stroke="#d57aec" stroke-width="13" d="M140 312q-72 28-96 106 82 2 136-44M372 312q72 28 96 106-82 2-136-44"/>
    <circle cx="210" cy="268" r="15" fill="#4e63c7"/>
    <circle cx="302" cy="268" r="15" fill="#4e63c7"/>
    <path stroke="#4e63c7" stroke-width="11" d="M226 322q30 24 60 0"/>
    <path fill="#ffffff" stroke="#8bd8f0" stroke-width="10" d="M184 366q72 48 144 0v56q-72 44-144 0z"/>
    <path stroke="#f3bd4e" stroke-width="12" d="M76 154l24 24M436 154l-24 24M82 246H48M430 246h34"/>
  </g>
</svg>
